<?xml version="1.0" encoding="UTF-8" standalone="no"?>
<!-- Created with Inkscape (http://www.inkscape.org/) -->

<svg
   width="512"
   height="512"
   viewBox="0 0 512 512"
   version="1.1"
   id="svg5"
   xml:space="preserve"
   inkscape:version="1.2.1 (9c6d41e410, 2022-07-14)"
   sodipodi:docname="vtauray.svg"
   inkscape:export-filename="vtauray.png"
   inkscape:export-xdpi="48"
   inkscape:export-ydpi="48"
   xmlns:inkscape="http://www.inkscape.org/namespaces/inkscape"
   xmlns:sodipodi="http://sodipodi.sourceforge.net/DTD/sodipodi-0.dtd"
   xmlns="http://www.w3.org/2000/svg"
   xmlns:svg="http://www.w3.org/2000/svg"><sodipodi:namedview
     id="namedview7"
     pagecolor="#ffffff"
     bordercolor="#000000"
     borderopacity="0.25"
     inkscape:showpageshadow="2"
     inkscape:pageopacity="0.0"
     inkscape:pagecheckerboard="0"
     inkscape:deskcolor="#d1d1d1"
     inkscape:document-units="px"
     showgrid="false"
     inkscape:zoom="0.5"
     inkscape:cx="183"
     inkscape:cy="310"
     inkscape:window-width="1494"
     inkscape:window-height="1145"
     inkscape:window-x="268"
     inkscape:window-y="56"
     inkscape:window-maximized="0"
     inkscape:current-layer="g2308" /><defs
     id="defs2"><filter
       id="mask-powermask-path-effect2242_inverse"
       inkscape:label="filtermask-powermask-path-effect2242"
       style="color-interpolation-filters:sRGB"
       height="100"
       width="100"
       x="-50"
       y="-50"><feColorMatrix
         id="mask-powermask-path-effect2242_primitive1"
         values="1"
         type="saturate"
         result="fbSourceGraphic" /><feColorMatrix
         id="mask-powermask-path-effect2242_primitive2"
         values="-1 0 0 0 1 0 -1 0 0 1 0 0 -1 0 1 0 0 0 1 0 "
         in="fbSourceGraphic" /></filter><filter
       id="mask-powermask-path-effect2256_inverse"
       inkscape:label="filtermask-powermask-path-effect2256"
       style="color-interpolation-filters:sRGB"
       height="100"
       width="100"
       x="-50"
       y="-50"><feColorMatrix
         id="mask-powermask-path-effect2256_primitive1"
         values="1"
         type="saturate"
         result="fbSourceGraphic" /><feColorMatrix
         id="mask-powermask-path-effect2256_primitive2"
         values="-1 0 0 0 1 0 -1 0 0 1 0 0 -1 0 1 0 0 0 1 0 "
         in="fbSourceGraphic" /></filter><mask
       maskUnits="userSpaceOnUse"
       id="mask2302"><path
         style="fill:#ffffff;fill-opacity:1;stroke:none;stroke-width:0.915925;stroke-dasharray:0.915925, 1.83185;stroke-dashoffset:0;stroke-opacity:1"
         d="m 235.52879,331.29119 c 3.44974,12.55751 -1.49284,31.285 -8.75033,41.05093 -7.89617,10.62537 -18.77302,19.01802 -30.41484,23.78422 -11.27848,4.61745 -23.63195,1.0967 -30.37285,-6.94655 -15.84506,-18.90635 -8.8475,-6.93398 -21.86243,-10.42132 C 138.85563,377.34565 55.561373,252.15156 52.921342,239.67788 43.043925,193.00883 -21.673839,52.410021 69.684798,40.615353 155.05302,29.594065 216.91272,200.04251 225.92313,267.08307 c 5.03544,37.46541 6.37309,55.71934 9.60566,64.20812 z"
         id="path2304"
         sodipodi:nodetypes="csssssssc" /></mask></defs><g
     inkscape:label="图层 1"
     inkscape:groupmode="layer"
     id="layer1"
     sodipodi:insensitive="true"
     style="display:none"><path
       sodipodi:type="star"
       style="fill:none;fill-opacity:1;stroke:#000000;stroke-width:1;stroke-dasharray:1, 2;stroke-dashoffset:0;stroke-opacity:1"
       id="path1107"
       inkscape:flatsided="true"
       sodipodi:sides="3"
       sodipodi:cx="142.83557"
       sodipodi:cy="195.86858"
       sodipodi:r1="239.63515"
       sodipodi:r2="119.81757"
       sodipodi:arg1="-0.52359878"
       sodipodi:arg2="0.52359878"
       inkscape:rounded="0"
       inkscape:randomized="0"
       d="M 350.3657,76.051002 142.83557,435.50372 -64.694554,76.051003 Z"
       inkscape:transform-center-y="59.908785"
       transform="translate(113.16443,0.22263763)" /></g><g
     inkscape:groupmode="layer"
     id="layer2"
     inkscape:label="图层 2"
     sodipodi:insensitive="true"
     style="display:none"><path
       style="fill:#ff8080;fill-opacity:1;stroke:none;stroke-width:1;stroke-dasharray:1, 2;stroke-dashoffset:0;stroke-opacity:1"
       d="m 48.541053,76.0625 h 93.499997 l 160.68554,278.31552 -46.7918,81.04578 z"
       id="path1166" /></g><g
     inkscape:groupmode="layer"
     id="layer3"
     inkscape:label="图层 3"><g
       id="g2308"
       transform="translate(-4)"><path
         style="fill:#ffc131;fill-opacity:1;stroke:none;stroke-width:1.11105;stroke-dasharray:1.11105, 2.2221;stroke-dashoffset:0;stroke-opacity:1"
         d="m 40.459448,79.637037 h 78.204462 c 27.82091,0 40.81888,35.884333 45.23897,49.494903 18.46872,56.86981 30.58818,91.27471 55.16702,159.65672 23.97267,66.69552 42.92704,121.59051 92.17715,121.59051 L 196.46652,409.78596 C 173.72454,409.66843 149.23781,370.58204 136.80233,334.68854 115.31858,272.67829 97.594142,211.34922 68.833388,131.71737 56.421533,97.351832 40.459448,79.637037 40.459448,79.637037 Z"
         id="path1225"
         sodipodi:nodetypes="cssscsssc"
         mask="url(#mask2302)"
         transform="translate(12.772972,11.750317)" /><path
         style="fill:#24c8db;fill-opacity:1;stroke:none;stroke-width:1.11102;stroke-dasharray:1.11102, 2.22204;stroke-dashoffset:0;stroke-opacity:1"
         d="m 466.76758,90.628935 h -78.20446 c -27.82091,0 -40.81888,35.884335 -45.23897,49.494905 -18.46872,56.86981 -30.58818,91.27471 -55.16702,159.65672 -23.97267,66.69552 -42.92704,121.59051 -92.17715,121.59051 l 114.78053,-0.59321 c 22.74198,-0.11753 47.22871,-39.20392 59.66419,-75.09742 21.48375,-62.01025 39.20819,-123.33932 67.96894,-202.97117 12.41185,-34.36554 28.37394,-52.080335 28.37394,-52.080335 z"
         id="path1225-2"
         sodipodi:nodetypes="cssscsssc" /></g></g></svg>
